<svg width="460" height="264" viewBox="0 0 460 264" version="1.1" xmlns="http://www.w3.org/2000/svg" xmlns:xlink="http://www.w3.org/1999/xlink">
<title>empty-messages</title>
<desc>Created using Figma</desc>
<g id="Canvas" transform="matrix(2 0 0 2 -876 -2620)">
<g id="empty-messages">
<g id="Subtract">
<use xlink:href="#path0_fill" transform="translate(441.385 1310.98)" fill="#EDEEF9"/>
</g>
<g id="Rectangle 11">
<use xlink:href="#path1_fill" transform="translate(618.99 1405.94)" fill="#ABADCD"/>
</g>
<g id="Rectangle 11">
<use xlink:href="#path1_fill" transform="translate(498.788 1319.52)" fill="#ABADCD"/>
</g>
<g id="Rectangle 11">
<use xlink:href="#path1_fill" transform="translate(477 1319.52)" fill="#ABADCD"/>
</g>
<g id="Rectangle 11">
<use xlink:href="#path1_fill" transform="translate(606.643 1314.07)" fill="#ABADCD"/>
</g>
<g id="Rectangle 11">
<use xlink:href="#path1_fill" transform="translate(455.211 1319.52)" fill="#ABADCD"/>
</g>
<g id="Rectangle 14">
<use xlink:href="#path2_fill" transform="translate(438.925 1427.19)" fill="#EDEEF9"/>
</g>
<g id="Rectangle 11.1">
<use xlink:href="#path3_fill" transform="translate(447.788 1435.52)" fill="#ABADCD"/>
</g>
<g id="Rectangle 14">
<use xlink:href="#path4_fill" transform="translate(625.788 1340.03)" fill="#EDEEF9"/>
</g>
<g id="Group">
<g id="Vector">
<use xlink:href="#path5_fill" transform="translate(518.571 1342.65)" fill="#8286B7"/>
</g>
<g id="Group">
<g id="Vector">
<use xlink:href="#path5_fill" transform="translate(511.526 1335.6)" fill="#AAAEED"/>
</g>
<g id="Group">
<g id="Rectangle 11">
<use xlink:href="#path6_fill" transform="translate(522.789 1348.31)" fill="#F4F5FD"/>
</g>
<g id="Rectangle 11">
<use xlink:href="#path6_fill" transform="translate(522.789 1365.92)" fill="#F4F5FD"/>
</g>
<g id="Rectangle 11">
<use xlink:href="#path6_fill" transform="translate(522.789 1383.54)" fill="#F4F5FD"/>
</g>
</g>
</g>
</g>
</g>
</g>
<defs>
<path id="path0_fill" fill-rule="evenodd" d="M 7.26294 7.26294C 7.26294 11.2742 10.5146 14.5259 14.5259 14.5259L 47.2091 14.5259L 74.041 14.5259C 78.0522 14.5259 81.3039 17.7776 81.3039 21.7888C 81.3039 25.8 78.0522 29.0518 74.041 29.0518L 47.2091 29.0518L 7.26294 29.0518C 3.25174 29.0518 0 32.3035 0 36.3147C 0 40.3258 3.25174 43.5776 7.26294 43.5776L 32.6832 43.5776L 81.3039 43.5776C 85.3151 43.5776 88.5668 46.8293 88.5668 50.8406C 88.5668 54.8517 85.3151 58.1035 81.3039 58.1035L 54.472 58.1035C 50.4608 58.1035 47.2091 61.3552 47.2091 65.3665C 47.2091 69.3776 50.4608 72.6294 54.472 72.6294L 83.5237 72.6294L 117.619 72.6294C 121.63 72.6294 124.882 75.8811 124.882 79.8923C 124.882 83.9034 121.63 87.1553 117.619 87.1553L 83.5237 87.1552L 29.0517 87.1552C 29.0375 87.1552 29.0233 87.1553 29.0092 87.1553C 25.0175 87.1782 21.7888 90.4211 21.7888 94.4181C 21.7888 98.4293 25.0405 101.681 29.0517 101.681L 65.3664 101.681L 70.4095 101.681C 74.4207 101.681 77.6724 104.933 77.6724 108.944C 77.6724 112.955 74.4207 116.207 70.4095 116.207L 65.3664 116.207L 43.5776 116.207C 39.5664 116.207 36.3147 119.459 36.3147 123.47C 36.3147 127.481 39.5664 130.733 43.5776 130.733L 208.405 130.733C 212.417 130.733 215.668 127.481 215.668 123.47C 215.668 119.459 212.417 116.207 208.405 116.207L 159.785 116.207C 155.773 116.207 152.522 112.955 152.522 108.944C 152.522 104.933 155.773 101.681 159.785 101.681L 193.879 101.681C 197.891 101.681 201.142 98.4293 201.142 94.4181C 201.142 90.4211 197.914 87.1782 193.922 87.1553L 193.879 87.1552L 177.942 87.1553C 173.931 87.1553 170.679 83.9034 170.679 79.8923C 170.679 75.8811 173.931 72.6294 177.942 72.6294L 219.3 72.6294C 223.311 72.6294 226.563 69.3776 226.563 65.3665C 226.563 61.3552 223.311 58.1035 219.3 58.1035L 197.511 58.1035L 119.838 58.1035C 115.827 58.1035 112.575 54.8517 112.575 50.8406C 112.575 46.8293 115.827 43.5776 119.838 43.5776L 172.091 43.5776C 176.102 43.5776 179.354 40.3258 179.354 36.3147C 179.354 32.3035 176.102 29.0518 172.091 29.0518L 148.89 29.0518C 144.879 29.0518 141.627 25.8 141.627 21.7888C 141.627 17.7776 144.879 14.5259 148.89 14.5259L 179.354 14.5259C 183.365 14.5259 186.616 11.2742 186.616 7.26294C 186.616 3.25171 183.365 0 179.354 0L 14.5259 0C 10.5146 0 7.26294 3.25171 7.26294 7.26294Z"/>
<path id="path1_fill" d="M 0 1.08944C 0 0.487759 0.487759 0 1.08944 0L 13.4364 0C 14.0381 0 14.5259 0.487759 14.5259 1.08944C 14.5259 1.69112 14.0381 2.17888 13.4364 2.17888L 1.08944 2.17888C 0.487759 2.17888 0 1.69112 0 1.08944Z"/>
<path id="path2_fill" d="M 0 7.26293C 0 3.25173 3.25173 0 7.26293 0L 24.3677 0C 28.3789 0 31.6307 3.25173 31.6307 7.26293C 31.6307 11.2741 28.3789 14.5259 24.3677 14.5259L 7.26293 14.5259C 3.25173 14.5259 0 11.2741 0 7.26293Z"/>
<path id="path3_fill" d="M 0 1.08944C 0 0.487759 0.487759 0 1.08944 0L 13.4364 0C 14.0381 0 14.5259 0.487759 14.5259 1.08944L 14.5259 1.08944C 14.5259 1.69112 14.0381 2.17888 13.4364 2.17888L 1.08944 2.17888C 0.487759 2.17888 0 1.69112 0 1.08944L 0 1.08944Z"/>
<path id="path4_fill" d="M 0 7.26293C 0 3.25173 3.25173 0 7.26293 0L 17.263 0C 21.2742 0 24.5259 3.25173 24.5259 7.26293C 24.5259 11.2741 21.2742 14.5259 17.263 14.5259L 7.26293 14.5259C 3.25173 14.5259 0 11.2741 0 7.26293Z"/>
<path id="path5_fill" d="M 88.0717 58.7145C 88.0717 61.3098 87.0407 63.7988 85.2055 65.634C 83.3703 67.4692 80.8813 68.5002 78.286 68.5002L 19.5715 68.5002L 0 88.0717L 0 9.78574C 0 7.1904 1.03099 4.70136 2.86618 2.86618C 4.70136 1.03099 7.1904 2.17287e-15 9.78574 0L 78.286 0C 80.8813 2.17287e-15 83.3703 1.03099 85.2055 2.86618C 87.0407 4.70136 88.0717 7.1904 88.0717 9.78574L 88.0717 58.7145Z"/>
<path id="path6_fill" d="M 0 2.20179C 0 0.985776 0.985776 0 2.20179 0L 59.4484 0C 60.6644 0 61.6502 0.985776 61.6502 2.20179L 61.6502 2.20179C 61.6502 3.41781 60.6644 4.40358 59.4484 4.40358L 2.20179 4.40358C 0.985776 4.40358 0 3.41781 0 2.20179L 0 2.20179Z"/>
</defs>
</svg>
