<svg width="474" height="262" viewBox="0 0 474 262" version="1.1" xmlns="http://www.w3.org/2000/svg" xmlns:xlink="http://www.w3.org/1999/xlink">
<title>empty-threads</title>
<desc>Created using Figma</desc>
<g id="Canvas" transform="matrix(2 0 0 2 -620 -2078)">
<g id="empty-threads">
<g id="Subtract">
<use xlink:href="#path0_fill" transform="translate(312.948 1039.14)" fill="#EDEEF9"/>
</g>
<g id="Rectangle 11.1">
<use xlink:href="#path1_fill" transform="translate(358.352 1163.67)" fill="#ABADCD"/>
</g>
<g id="Rectangle 11.2">
<use xlink:href="#path1_fill" transform="translate(380.352 1163.67)" fill="#ABADCD"/>
</g>
<g id="Rectangle 11">
<use xlink:href="#path1_fill" transform="translate(490.554 1134.1)" fill="#ABADCD"/>
</g>
<g id="Rectangle 11">
<use xlink:href="#path1_fill" transform="translate(370.352 1047.67)" fill="#ABADCD"/>
</g>
<g id="Rectangle 11">
<use xlink:href="#path1_fill" transform="translate(348.563 1047.67)" fill="#ABADCD"/>
</g>
<g id="Rectangle 11">
<use xlink:href="#path1_fill" transform="translate(478.207 1042.23)" fill="#ABADCD"/>
</g>
<g id="Rectangle 11">
<use xlink:href="#path1_fill" transform="translate(326.775 1047.67)" fill="#ABADCD"/>
</g>
<g id="Group">
<g id="Union">
<use xlink:href="#path2_fill" transform="translate(441.135 1154.72)" fill="#ABADCD"/>
</g>
</g>
<g id="Group">
<g id="Union">
<use xlink:href="#path3_fill" transform="translate(416.157 1042.49)" fill="#AAADED"/>
</g>
<g id="Union">
<use xlink:href="#path4_fill" transform="translate(432.712 1051.73)" fill="#AAADED"/>
</g>
</g>
<g id="Group">
<g id="Rectangle 13">
<use xlink:href="#path5_fill" transform="translate(367.543 1073.19)" fill="#AAAEED"/>
</g>
<g id="Group">
<g id="Rectangle 12">
<use xlink:href="#path6_fill" transform="translate(373.712 1078.74)" fill="#F4F5FD"/>
</g>
<g id="Rectangle 12">
<use xlink:href="#path7_fill" transform="translate(401.31 1080.81)" fill="#F4F5FD"/>
</g>
<g id="Rectangle 12">
<use xlink:href="#path8_fill" transform="translate(401.31 1091.16)" fill="#F4F5FD"/>
</g>
<g id="Rectangle 12">
<use xlink:href="#path8_fill" transform="translate(401.31 1098.06)" fill="#F4F5FD"/>
</g>
<g id="Rectangle 12">
<use xlink:href="#path9_fill" transform="translate(460.57 1091.16)" fill="#F4F5FD"/>
</g>
<g id="Rectangle 12">
<use xlink:href="#path9_fill" transform="translate(460.57 1098.06)" fill="#F4F5FD"/>
</g>
</g>
</g>
<g id="Group">
<g id="Rectangle 13">
<use xlink:href="#path5_fill" transform="translate(367.543 1109.71)" fill="#AAAEED"/>
</g>
<g id="Group">
<g id="Rectangle 12">
<use xlink:href="#path6_fill" transform="translate(373.712 1115.26)" fill="#F4F5FD"/>
</g>
<g id="Rectangle 12">
<use xlink:href="#path7_fill" transform="translate(401.31 1117.33)" fill="#F4F5FD"/>
</g>
<g id="Rectangle 12">
<use xlink:href="#path8_fill" transform="translate(401.31 1127.67)" fill="#F4F5FD"/>
</g>
<g id="Rectangle 12">
<use xlink:href="#path8_fill" transform="translate(401.31 1134.57)" fill="#F4F5FD"/>
</g>
<g id="Rectangle 12">
<use xlink:href="#path9_fill" transform="translate(460.57 1127.67)" fill="#F4F5FD"/>
</g>
<g id="Rectangle 12">
<use xlink:href="#path9_fill" transform="translate(460.57 1134.57)" fill="#F4F5FD"/>
</g>
</g>
</g>
<g id="Rectangle 14">
<use xlink:href="#path10_fill" transform="translate(310.489 1155.34)" fill="#EDEEF9"/>
</g>
<g id="Rectangle 14">
<use xlink:href="#path11_fill" transform="translate(497.351 1068.19)" fill="#EDEEF9"/>
</g>
</g>
</g>
<defs>
<path id="path0_fill" fill-rule="evenodd" d="M 7.26294 7.26294C 7.26294 11.2742 10.5146 14.5259 14.5259 14.5259L 47.2091 14.5259L 74.041 14.5259C 78.0522 14.5259 81.3039 17.7776 81.3039 21.7888C 81.3039 25.8 78.0522 29.0518 74.041 29.0518L 47.2091 29.0518L 7.26294 29.0518C 3.25174 29.0518 0 32.3035 0 36.3147C 0 40.3258 3.25174 43.5776 7.26294 43.5776L 32.6832 43.5776L 81.3039 43.5776C 85.3151 43.5776 88.5668 46.8293 88.5668 50.8406C 88.5668 54.8517 85.3151 58.1035 81.3039 58.1035L 54.472 58.1035C 50.4608 58.1035 47.2091 61.3552 47.2091 65.3665C 47.2091 69.3776 50.4608 72.6294 54.472 72.6294L 83.5237 72.6294L 117.619 72.6294C 121.63 72.6294 124.882 75.8811 124.882 79.8923C 124.882 83.9034 121.63 87.1553 117.619 87.1553L 83.5237 87.1552L 29.0517 87.1552C 29.0375 87.1552 29.0233 87.1553 29.0092 87.1553C 25.0175 87.1782 21.7888 90.4211 21.7888 94.4181C 21.7888 98.4293 25.0405 101.681 29.0517 101.681L 65.3664 101.681L 70.4095 101.681C 74.4207 101.681 77.6725 104.933 77.6725 108.944C 77.6725 112.955 74.4207 116.207 70.4095 116.207L 65.3664 116.207L 43.5776 116.207C 39.5664 116.207 36.3147 119.459 36.3147 123.47C 36.3147 127.481 39.5664 130.733 43.5776 130.733L 226.563 130.733C 230.574 130.733 233.826 127.481 233.826 123.47C 233.826 119.459 230.574 116.207 226.563 116.207L 110.727 116.207C 106.716 116.207 103.464 112.955 103.464 108.944C 103.464 104.933 106.716 101.681 110.727 101.681L 193.879 101.681C 197.891 101.681 201.142 98.4293 201.142 94.4181C 201.142 90.4211 197.914 87.1782 193.922 87.1553L 193.879 87.1552L 177.942 87.1553C 173.931 87.1553 170.679 83.9034 170.679 79.8923C 170.679 75.8811 173.931 72.6294 177.942 72.6294L 219.3 72.6294C 223.311 72.6294 226.563 69.3776 226.563 65.3665C 226.563 61.3552 223.311 58.1035 219.3 58.1035L 197.511 58.1035L 119.838 58.1035C 115.827 58.1035 112.575 54.8517 112.575 50.8406C 112.575 46.8293 115.827 43.5776 119.838 43.5776L 172.091 43.5776C 176.102 43.5776 179.354 40.3258 179.354 36.3147C 179.354 32.3035 176.102 29.0518 172.091 29.0518L 148.89 29.0518C 144.879 29.0518 141.627 25.8 141.627 21.7888C 141.627 17.7776 144.879 14.5259 148.89 14.5259L 179.354 14.5259C 183.365 14.5259 186.616 11.2742 186.616 7.26294C 186.616 3.25171 183.365 0 179.354 0L 14.5259 0C 10.5146 0 7.26294 3.25171 7.26294 7.26294Z"/>
<path id="path1_fill" d="M 0 1.08944C 0 0.487759 0.487759 0 1.08944 0L 13.4364 0C 14.0381 0 14.5259 0.487759 14.5259 1.08944L 14.5259 1.08944C 14.5259 1.69112 14.0381 2.17888 13.4364 2.17888L 1.08944 2.17888C 0.487759 2.17888 0 1.69112 0 1.08944L 0 1.08944Z"/>
<path id="path2_fill" fill-rule="evenodd" d="M 6.25238 3.7103e-34L 6.25238 0C 5.56174 0 5.00189 0.559814 5.00189 1.25049L 5.00189 1.25049L 5.00189 4.50171C 5.00189 4.77785 4.77803 5.00171 4.50189 5.00171L 1.25049 5.00171L 1.25049 5.00171C 0.559845 5.00171 1.66439e-17 5.56165 3.71111e-34 6.2522L 0 6.2522C 0 6.94287 0.559845 7.50269 1.25049 7.50269L 1.25049 7.50269L 4.50189 7.50269C 4.77803 7.50269 5.00189 7.72654 5.00189 8.00269L 5.00189 11.2543L 5.00189 11.2543C 5.00189 11.9448 5.56174 12.5048 6.25238 12.5048L 6.25238 12.5048C 6.94299 12.5048 7.50284 11.9448 7.50284 11.2543L 7.50284 11.2543L 7.50284 8.00269C 7.50284 7.72654 7.7267 7.50269 8.00284 7.50269L 11.2543 7.50269L 11.2543 7.50269C 11.9449 7.50269 12.5047 6.94287 12.5047 6.2522L 12.5047 6.2522C 12.5047 5.56165 11.9449 5.00171 11.2543 5.00171L 11.2543 5.00171L 8.00284 5.00171C 7.7267 5.00171 7.50284 4.77785 7.50284 4.50171L 7.50284 1.25049L 7.50284 1.25049C 7.50284 0.559814 6.94299 1.66416e-17 6.25238 3.7103e-34Z"/>
<path id="path3_fill" fill-rule="evenodd" d="M 8.8688 2.6159e-34L 8.8688 0C 7.88919 0 7.09503 0.794189 7.09503 1.7738L 7.09503 1.7738L 7.09503 6.59473C 7.09503 6.87087 6.87117 7.09473 6.59503 7.09473L 1.77377 7.09473L 1.77377 7.09473C 0.794159 7.09473 1.66425e-17 7.88892 0 8.86853L 0 8.86853C 0 9.84814 0.794159 10.6423 1.77377 10.6423L 1.77377 10.6423L 6.59503 10.6423C 6.87117 10.6423 7.09503 10.8662 7.09503 11.1423L 7.09503 15.964L 7.09503 15.964C 7.09503 16.9436 7.88919 17.7378 8.8688 17.7378L 8.8688 17.7378C 9.84845 17.7378 10.6426 16.9436 10.6426 15.964L 10.6426 15.964L 10.6426 11.1423C 10.6426 10.8662 10.8664 10.6423 11.1426 10.6423L 15.964 10.6423L 15.964 10.6423C 16.9436 10.6423 17.7378 9.84814 17.7378 8.86853L 17.7378 8.86853C 17.7378 7.88892 16.9436 7.09473 15.964 7.09473L 15.964 7.09473L 11.1426 7.09473C 10.8664 7.09473 10.6426 6.87087 10.6426 6.59473L 10.6426 1.7738L 10.6426 1.7738C 10.6426 0.794189 9.84845 1.66434e-17 8.8688 2.6159e-34Z"/>
<path id="path4_fill" fill-rule="evenodd" d="M 4.73001 4.9053e-34L 4.73001 0C 4.20755 0 3.784 0.423584 3.784 0.946045L 3.784 0.946045L 3.784 3.28406C 3.784 3.5602 3.56014 3.78406 3.284 3.78406L 0.946014 3.78406L 0.946014 3.78406C 0.423553 3.78406 1.66434e-17 4.20752 4.905e-34 4.72998L 0 4.72998C 0 5.25244 0.423553 5.67603 0.946014 5.67603L 0.946014 5.67603L 3.284 5.67603C 3.56014 5.67603 3.784 5.89988 3.784 6.17603L 3.784 8.51416L 3.784 8.51416C 3.784 9.03662 4.20755 9.46008 4.73001 9.46008L 4.73001 9.46008C 5.25247 9.46008 5.67603 9.03662 5.67603 8.51416L 5.67603 8.51416L 5.67603 6.17603C 5.67603 5.89988 5.89988 5.67603 6.17603 5.67603L 8.51413 5.67603L 8.51413 5.67603C 9.03659 5.67603 9.46014 5.25244 9.46014 4.72998L 9.46014 4.72998C 9.46014 4.20752 9.03659 3.78406 8.51413 3.78406L 8.51413 3.78406L 6.17603 3.78406C 5.89988 3.78406 5.67603 3.5602 5.67603 3.28406L 5.67603 0.946045L 5.67603 0.946045C 5.67603 0.423584 5.25247 1.66445e-17 4.73001 4.9053e-34Z"/>
<path id="path5_fill" d="M 0 4C 0 1.79086 1.79086 0 4 0L 107.927 0C 110.136 0 111.927 1.79086 111.927 4L 111.927 29.1724C 111.927 31.3815 110.136 33.1724 107.927 33.1724L 4 33.1724C 1.79086 33.1724 0 31.3815 0 29.1724L 0 4Z"/>
<path id="path6_fill" d="M 0 4C 0 1.79086 1.79086 0 4 0L 18.0782 0C 20.2873 0 22.0782 1.79086 22.0782 4L 22.0782 18.0782C 22.0782 20.2873 20.2873 22.0782 18.0782 22.0782L 4 22.0782C 1.79086 22.0782 0 20.2873 0 18.0782L 0 4Z"/>
<path id="path7_fill" d="M 0 2.06983C 0 0.926695 0.926695 0 2.06983 0L 69.9198 0C 71.063 0 71.9897 0.926695 71.9897 2.06983L 71.9897 2.06983C 71.9897 3.21297 71.063 4.13966 69.9198 4.13966L 2.06983 4.13966C 0.926695 4.13966 0 3.21297 0 2.06983L 0 2.06983Z"/>
<path id="path8_fill" d="M 0 1.03492C 0 0.463347 0.463347 0 1.03492 0L 53.7791 0C 54.3506 0 54.814 0.463347 54.814 1.03492L 54.814 1.03492C 54.814 1.60648 54.3506 2.06983 53.7791 2.06983L 1.03492 2.06983C 0.463347 2.06983 0 1.60648 0 1.03492L 0 1.03492Z"/>
<path id="path9_fill" d="M 0 1.03492C 0 0.463347 0.463347 0 1.03492 0L 10.3875 0C 10.959 0 11.4224 0.463347 11.4224 1.03492L 11.4224 1.03492C 11.4224 1.60648 10.959 2.06983 10.3875 2.06983L 1.03492 2.06983C 0.463347 2.06983 0 1.60648 0 1.03492L 0 1.03492Z"/>
<path id="path10_fill" d="M 0 7.26293C 0 3.25173 3.25173 0 7.26293 0L 24.3677 0C 28.3789 0 31.6307 3.25173 31.6307 7.26293L 31.6307 7.26293C 31.6307 11.2741 28.3789 14.5259 24.3677 14.5259L 7.26293 14.5259C 3.25173 14.5259 0 11.2741 0 7.26293L 0 7.26293Z"/>
<path id="path11_fill" d="M 0 7.26293C 0 3.25173 3.25173 0 7.26293 0L 17.263 0C 21.2742 0 24.5259 3.25173 24.5259 7.26293L 24.5259 7.26293C 24.5259 11.2741 21.2742 14.5259 17.263 14.5259L 7.26293 14.5259C 3.25173 14.5259 0 11.2741 0 7.26293L 0 7.26293Z"/>
</defs>
</svg>
