<svg width="276" height="280" viewBox="0 0 276 280" version="1.1" xmlns="http://www.w3.org/2000/svg" xmlns:xlink="http://www.w3.org/1999/xlink">
<title>engine</title>
<desc>Created using Figma</desc>
<g id="Canvas" transform="translate(-201 169)">
<g id="engine">
<g id="Group">
<g id="download">
<g id="Vector">
<use xlink:href="#path0_fill" transform="matrix(1.19434e-15 -1 1 1.19434e-15 292.9 111)" fill="#7375A0"/>
</g>
</g>
<g id="Vector">
<use xlink:href="#path1_fill" transform="matrix(1.19434e-15 1 1 -1.19434e-15 201.369 -114.119)" fill="#7375A0"/>
</g>
<g id="Vector">
<use xlink:href="#path1_fill" transform="matrix(1.19434e-15 -1 1 1.19434e-15 201.369 65.4368)" fill="#7375A0"/>
</g>
</g>
<g id="Subtract" filter="url(#filter0_d)">
<use xlink:href="#path2_fill" transform="translate(318.95 -53.183)" fill="#FFFFFF"/>
</g>
</g>
</g>
<defs>
<filter id="filter0_d" filterUnits="userSpaceOnUse" x="315" y="-56" width="40" height="58" color-interpolation-filters="sRGB">
<feFlood flood-opacity="0" result="BackgroundImageFix"/>
<feColorMatrix in="SourceAlpha" type="matrix" values="0 0 0 0 0 0 0 0 0 0 0 0 0 0 0 0 0 0 255 0"/>
<feOffset dx="0" dy="1"/>
<feGaussianBlur stdDeviation="1.5"/>
<feColorMatrix type="matrix" values="0 0 0 0 0 0 0 0 0 0 0 0 0 0 0 0 0 0 0.15 0"/>
<feBlend mode="normal" in2="BackgroundImageFix" result="effect1_dropShadow"/>
<feBlend mode="normal" in="SourceGraphic" in2="effect1_dropShadow" result="shape"/>
</filter>
<path id="path0_fill" d="M 18.3306 41.7302C 26.3398 41.7244 33.0491 36.2598 34.9831 28.8584L 60.529 28.8584C 62.3204 33.8082 67.0201 37.3679 72.5894 37.3679C 79.6971 37.3679 85.4612 31.6066 85.4612 24.496C 85.4612 17.3854 79.7 11.6242 72.5894 11.6242C 67.0201 11.6242 62.3204 15.181 60.529 20.1308L 34.9831 20.1308C 33.0462 12.7293 26.334 7.26188 18.3277 7.26188C 8.80612 7.26188 1.0964 14.9716 1.09059 24.4931C 1.10222 34.0147 8.81193 41.7244 18.3306 41.7302ZM 18.3306 15.9866C 23.0303 15.9924 26.8284 19.7934 26.8371 24.4931C 26.8313 29.1899 23.0303 32.9968 18.3306 33.0026C 13.6338 32.9968 9.82691 29.1899 9.82109 24.4931C 9.82691 19.7934 13.6338 15.9924 18.3306 15.9866ZM 24.8217 65.8859C 26.5201 63.6524 28.9165 62.2361 34.6894 62.1518C 44.1964 62.1518 54.9772 62.2536 59.7961 62.3059C 61.5788 67.2732 66.2814 70.8474 71.8652 70.8474C 78.973 70.8474 84.7371 65.0862 84.7371 57.9756C 84.7371 50.8649 78.9759 45.1008 71.8652 45.1008C 66.3047 45.1008 61.6137 48.646 59.8135 53.5812C 54.9452 53.5318 44.1964 53.4358 34.6865 53.4358C 27.3664 53.3457 21.2853 55.8293 17.7722 60.7559C 14.291 65.6184 13.3895 71.7082 13.3575 78.6182L 13.3575 149.538C 5.70885 151.301 0.00581646 158.138 0 166.322C 0.00581646 175.837 7.71262 183.553 17.2371 183.559C 26.7557 183.553 34.4625 175.846 34.4683 166.322C 34.4654 158.493 29.2393 151.888 22.088 149.788L 22.088 78.6153C 22.0589 72.4993 23.0942 68.1805 24.8217 65.8859ZM 25.7466 166.316C 25.7407 171.01 21.9339 174.817 17.24 174.822C 12.5374 174.817 8.73923 171.016 8.7276 166.316C 8.73923 161.619 12.5403 157.812 17.24 157.806C 21.9368 157.815 25.7407 161.619 25.7466 166.316ZM 202.296 37.1236C 207.866 37.1236 212.562 33.5639 214.357 28.6141L 245.713 28.6141C 247.647 36.0155 254.36 41.4801 262.372 41.4859C 271.885 41.4801 279.603 33.7704 279.603 24.2488C 279.594 14.7302 271.893 7.01758 262.372 7.01176C 254.36 7.01467 247.65 12.485 245.713 19.8836L 214.354 19.8836C 212.562 14.9338 207.866 11.377 202.296 11.377C 195.189 11.377 189.422 17.1382 189.422 24.2488C 189.422 31.3565 195.189 37.1236 202.296 37.1236ZM 262.372 15.7394C 267.066 15.7452 270.87 19.552 270.875 24.2488C 270.87 28.9456 267.066 32.7525 262.372 32.7583C 257.669 32.7525 253.865 28.9514 253.859 24.2488C 253.865 19.552 257.669 15.7452 262.372 15.7394ZM 261.645 52.8629C 256.189 52.8658 251.338 55.4047 248.18 59.3541C 246.077 58.5514 243.209 57.4463 240.607 56.4022C 237.602 55.1575 234.083 54.0408 228.572 54.096C 224.847 54.0902 215.41 54.0902 213.627 54.0902C 211.833 49.1404 207.136 45.5836 201.569 45.5836C 194.462 45.5836 188.695 51.3477 188.695 58.4584C 188.695 65.569 194.459 71.3302 201.569 71.3302C 207.142 71.3302 211.838 67.7705 213.63 62.8178L 228.572 62.8178C 233.234 62.873 234.508 63.4052 237.373 64.5045C 239.856 65.4962 242.567 66.5432 244.649 67.343C 244.504 68.2445 244.408 69.1606 244.408 70.1029C 244.408 79.6157 252.114 87.3342 261.645 87.3342C 271.157 87.3342 278.873 79.6186 278.882 70.1029C 278.873 60.5843 271.166 52.8687 261.645 52.8629ZM 261.645 78.6066C 256.942 78.6007 253.138 74.7997 253.132 70.1029C 253.138 65.4003 256.942 61.5934 261.645 61.5876C 266.339 61.5934 270.142 65.4003 270.148 70.1029C 270.142 74.8026 266.339 78.6007 261.645 78.6066ZM 113.467 0C 103.347 0.00581646 95.1485 8.20414 95.1427 18.3248L 95.1427 64.2835C 95.1485 74.4012 103.347 82.6024 113.467 82.6024L 160.688 82.6083C 170.809 82.6025 179.01 74.4041 179.016 64.2835L 179.01 64.2835L 179.01 18.3248C 179.01 8.20414 170.812 0.00581646 160.688 0L 113.467 0ZM 119.749 91.301C 114.494 91.301 109.992 94.4593 107.991 98.97L 67.0376 98.97C 62.5676 98.97 57.7691 100.02 53.9855 103.402C 50.1815 106.787 48.0963 112.182 48.1312 118.964C 48.1341 120.881 48.1981 122.925 48.2737 124.685C 40.7443 126.531 35.1547 133.305 35.1547 141.404C 35.1547 150.923 42.8673 158.635 52.3859 158.641C 61.9046 158.635 69.6172 150.925 69.6172 141.404C 69.6172 133.488 64.2806 126.84 57.01 124.815C 56.9286 123.036 56.8559 120.883 56.8588 118.964C 56.8937 113.747 58.2547 111.324 59.8165 109.896C 61.3927 108.462 63.8676 107.695 67.0376 107.695L 107.424 107.695C 108.963 113.081 113.866 117.045 119.749 117.045C 126.854 117.045 132.621 111.286 132.621 104.173C 132.618 97.065 126.854 91.301 119.749 91.301ZM 60.8983 141.404C 60.8867 146.101 57.0885 149.908 52.3859 149.916C 47.6891 149.908 43.8881 146.101 43.8765 141.404C 43.8881 136.701 47.692 132.903 52.3859 132.897C 57.0885 132.903 60.8838 136.701 60.8983 141.404ZM 201.994 136.303C 202.099 132.147 202.238 125.519 202.238 118.97C 202.276 112.179 200.188 106.79 196.381 103.405C 192.597 100.02 187.799 98.97 183.335 98.97L 166.266 98.97L 166.266 100.756C 164.76 95.3172 159.828 91.301 153.909 91.301C 146.804 91.301 141.037 97.0621 141.037 104.173C 141.037 111.283 146.802 117.045 153.909 117.045C 159.828 117.045 164.76 113.031 166.266 107.59L 166.266 107.698C 166.266 107.692 168.259 107.692 171.391 107.698C 174.523 107.692 178.792 107.692 183.335 107.698C 186.502 107.698 188.974 108.46 190.553 109.893C 192.112 111.327 193.476 113.747 193.514 118.97C 193.514 125.63 193.368 132.415 193.261 136.483C 186.045 138.539 180.749 145.167 180.749 153.046C 180.749 162.564 188.465 170.28 197.984 170.28C 207.502 170.28 215.218 162.567 215.218 153.046C 215.218 144.914 209.579 138.112 201.994 136.303ZM 197.984 161.558C 193.284 161.552 189.48 157.748 189.474 153.048C 189.48 148.349 193.284 144.545 197.984 144.539C 202.683 144.545 206.487 148.349 206.493 153.048C 206.487 157.748 202.686 161.552 197.984 161.558Z"/>
<path id="path1_fill" d="M 33.9245 21.4715C 32.0312 28.9369 25.2929 34.4654 17.2371 34.4654C 7.71553 34.4654 0 26.7528 0 17.2371C 0 7.71262 7.71844 0 17.2371 0C 25.2027 0 31.8829 5.40931 33.8605 12.7497L 44.7577 12.7497C 58.1151 12.5287 66.0924 20.8316 68.864 29.4778C 72.5559 40.0111 75.7124 54.287 76.2196 56.5809L 76.2451 56.6959C 82.3785 57.676 87.0811 62.9515 87.0811 69.3642C 87.0811 76.4748 81.317 82.236 74.2093 82.236C 67.0987 82.236 61.3375 76.4719 61.3375 69.3642C 61.3375 64.6528 63.8938 60.5755 67.6687 58.3333L 67.6544 58.2691C 67.0804 55.7016 64.0071 41.9526 60.6308 32.3686C 58.1413 26.0374 54.6573 21.6867 44.7577 21.4715L 33.9245 21.4715Z"/>
<path id="path2_fill" fill-rule="evenodd" d="M 2.08456 47.6986L 0 50.3311L 11.9955 50.3311L 0 43.7514L 0 43.7542L 2.08456 47.6986ZM 0 41.9017L 15.3849 50.3405C 20.4969 50.3671 24.9983 50.2528 28.3966 46.2878C 31.1849 43.0347 32.579 38.4338 32.579 32.4851C 32.579 26.7689 31.136 22.2377 28.2498 18.8916C 25.4126 15.5455 21.6704 13.8724 17.0233 13.8724C 13.5012 13.8724 10.6884 15.0343 8.58502 17.3579L 8.58502 0L 0 3.69466L 0 41.9017ZM 21.8661 40.5019C 20.4964 42.4073 18.4908 43.36 15.8492 43.36C 12.5718 43.36 10.1504 42.2214 8.58502 39.9442L 8.58502 25.0958C 10.1993 22.7721 12.6207 21.6103 15.8492 21.6103C 18.4419 21.6103 20.4475 22.5398 21.8661 24.3987C 23.2847 26.2577 23.994 28.9531 23.994 32.4851C 23.994 35.8777 23.2847 38.55 21.8661 40.5019Z"/>
</defs>
</svg>
