<svg width="36" height="55" viewBox="0 0 36 55" version="1.1" xmlns="http://www.w3.org/2000/svg" xmlns:xlink="http://www.w3.org/1999/xlink">
<title>logo-icon-white</title>
<desc>Created using Figma</desc>
<g id="Canvas" transform="translate(-549 1967)">
<g id="logo-icon-white">
<use xlink:href="#path0_fill" transform="translate(549.417 -1966.22)" fill="url(#paint0_linear)"/>
</g>
</g>
<defs>
<linearGradient id="paint0_linear" x1="0" y1="0" x2="1" y2="0" gradientUnits="userSpaceOnUse" gradientTransform="matrix(2.14844e-15 54.2179 -35.0867 3.31989e-15 35.0867 -3.31989e-15)">
<stop offset="0" stop-color="#FFFFFF"/>
<stop offset="1" stop-color="#FFFFFF"/>
</linearGradient>
<path id="path0_fill" fill-rule="evenodd" d="M 2.24506 51.37L 0 54.2051L 12.9188 54.2051L 0 47.119L 0 47.1221L 2.24506 51.37ZM 0 45.1268L 16.5692 54.2152C 22.0747 54.2439 26.9224 54.1207 30.5823 49.8507C 33.5852 46.3472 35.0867 41.3921 35.0867 34.9856C 35.0867 28.8293 33.5325 23.9493 30.4243 20.3457C 27.3687 16.7421 23.3384 14.9402 18.3336 14.9402C 14.5404 14.9402 11.5112 16.1914 9.24579 18.694L 9.24579 0L 0 3.979L 0 45.1268ZM 23.5491 43.6194C 22.074 45.6714 19.9141 46.6975 17.0692 46.6975C 13.5394 46.6975 10.9316 45.4712 9.24579 43.0188L 9.24579 27.0275C 10.9843 24.5249 13.5921 23.2737 17.0692 23.2737C 19.8614 23.2737 22.0214 24.2747 23.5491 26.2767C 25.077 28.2788 25.8409 31.1816 25.8409 34.9856C 25.8409 38.6393 25.077 41.5172 23.5491 43.6194Z"/>
</defs>
</svg>
