<svg width="216" height="85" viewBox="0 0 216 85" version="1.1" xmlns="http://www.w3.org/2000/svg" xmlns:xlink="http://www.w3.org/1999/xlink">
<title>logo-type-dark-grey</title>
<desc>Created using Figma</desc>
<g id="Canvas" transform="translate(-759 2361)">
<g id="logo-type-dark-grey">
<use xlink:href="#path0_fill" transform="translate(759.52 -2360.61)" fill="#5F6283"/>
</g>
</g>
<defs>
<path id="path0_fill" fill-rule="evenodd" d="M 3.40912 78.0066L 0 82.3118L 19.6171 82.3118L 0 71.5559L 3.40912 78.0066ZM 0 68.5266L 25.16 82.3269C 33.5205 82.3706 40.8822 82.1841 46.44 75.6995C 51 70.3794 53.28 62.855 53.28 53.1265C 53.28 43.7781 50.92 36.3677 46.2 30.8955C 41.56 25.4231 35.44 22.687 27.84 22.687C 22.08 22.687 17.48 24.5872 14.04 28.3875L 14.04 0L 0 6.04224L 0 68.5266ZM 35.76 66.2371C 33.52 69.3533 30.24 70.9114 25.92 70.9114C 20.56 70.9114 16.6 69.0493 14.04 65.325L 14.04 41.042C 16.68 37.2417 20.64 35.3416 25.92 35.3416C 30.16 35.3416 33.44 36.8618 35.76 39.9019C 38.08 42.9419 39.24 47.3501 39.24 53.1265C 39.24 58.6748 38.08 63.0449 35.76 66.2371ZM 93.6403 77.6377L 93.6403 82.3118L 107.32 82.3118L 107.32 44.8042C 107.32 40.168 106.6 36.2917 105.16 33.1755C 103.72 30.0593 101.68 27.7793 99.0403 26.3352C 96.4803 24.8911 93.9603 23.9412 91.4803 23.4851C 89.0803 22.9531 86.2803 22.687 83.0803 22.687C 73.7203 22.687 65.7203 24.8152 59.0803 29.0713L 63.4003 39.9019C 68.9203 36.2537 75.0003 34.4297 81.6403 34.4297C 85.7203 34.4297 88.7203 35.2656 90.6403 36.9377C 92.6403 38.6099 93.6403 41.3079 93.6403 45.0322L 93.6403 48.1104C 89.8003 46.0581 84.9603 45.0322 79.1203 45.0322C 72.4803 45.0322 66.8003 46.6663 62.0803 49.9343C 57.4403 53.2024 55.1203 57.9907 55.1203 64.2991C 55.1203 70.4553 57.1603 75.2434 61.2403 78.6636C 65.4003 82.0078 70.7603 83.6799 77.3203 83.6799C 84.1203 83.6799 89.5603 81.6658 93.6403 77.6377ZM 93.6403 66.3511C 89.8803 70.0752 85.3203 71.9373 79.9603 71.9373C 76.3603 71.9373 73.6003 71.2534 71.6803 69.8853C 69.7603 68.5171 68.8003 66.655 68.8003 64.2991C 68.8003 61.6389 69.9603 59.6628 72.2803 58.3708C 74.6003 57.0786 77.6403 56.4326 81.4003 56.4326C 86.0403 56.4326 90.1203 57.2307 93.6403 58.8267L 93.6403 66.3511ZM 134.191 83.6799C 129.231 83.6799 124.551 82.7678 120.151 80.9438C 115.831 79.1196 112.551 76.6875 110.311 73.6475L 119.911 65.895C 124.231 69.9993 128.991 72.0513 134.191 72.0513C 140.831 72.0513 144.151 70.1514 144.151 66.3511C 144.151 65.0591 143.551 63.8811 142.351 62.8169C 141.231 61.7529 139.991 60.9548 138.631 60.4229C 137.351 59.8147 135.231 58.9407 132.271 57.8008C 125.231 55.5967 120.071 53.0884 116.791 50.2764C 113.591 47.3882 111.991 43.5881 111.991 38.8757C 111.991 33.7837 114.031 29.8313 118.111 27.0193C 122.271 24.1311 127.511 22.687 133.831 22.687C 143.111 22.687 150.431 25.6892 155.791 31.6936L 146.071 39.2178C 142.471 35.9497 138.391 34.3157 133.831 34.3157C 128.311 34.3157 125.551 35.9116 125.551 39.1038C 125.551 40.7 126.551 42.0679 128.551 43.208C 130.631 44.3481 133.631 45.5261 137.551 46.7422C 144.191 48.8704 149.191 51.3784 152.551 54.2666C 155.991 57.1548 157.711 61.1829 157.711 66.3511C 157.711 71.8994 155.591 76.1936 151.351 79.2336C 147.111 82.1978 141.391 83.6799 134.191 83.6799ZM 167.362 75.5854C 172.482 80.9817 179.402 83.6799 188.122 83.6799C 197.322 83.6799 204.602 80.6399 209.962 74.5596L 201.082 65.895C 197.882 69.9233 193.562 71.9373 188.122 71.9373C 184.282 71.9373 180.962 70.6833 178.162 68.1753C 175.442 65.667 173.962 62.3608 173.722 58.2568L 214.402 58.2568C 214.722 55.9006 214.882 53.1646 214.882 50.0483C 214.882 41.0798 212.362 34.2776 207.322 29.6414C 202.362 25.0051 195.962 22.687 188.122 22.687C 179.482 22.687 172.602 25.4231 167.482 30.8955C 162.362 36.2917 159.802 43.7021 159.802 53.1265C 159.802 62.627 162.322 70.1133 167.362 75.5854ZM 200.962 47.1982L 173.842 47.1982C 174.162 42.866 175.602 39.6738 178.162 37.6218C 180.802 35.4937 184.122 34.4297 188.122 34.4297C 191.562 34.4297 194.482 35.5317 196.882 37.7358C 199.282 39.8638 200.642 43.0181 200.962 47.1982Z"/>
</defs>
</svg>
