<svg width="142" height="56" viewBox="0 0 142 56" version="1.1" xmlns="http://www.w3.org/2000/svg" xmlns:xlink="http://www.w3.org/1999/xlink">
<title>logo-type-white</title>
<desc>Created using Figma</desc>
<g id="Canvas" transform="translate(-496 2149)">
<g id="logo-type-white">
<use xlink:href="#path0_fill" transform="translate(496.207 -2148.69)" fill="#FFFFFF"/>
</g>
</g>
<defs>
<path id="path0_fill" fill-rule="evenodd" d="M 2.24503 51.3701L 0 54.2051L 12.919 54.2051L 0 47.1221L 2.24503 51.3701ZM 0 45.127L 16.5692 54.2153C 22.0747 54.2439 26.9224 54.1208 30.5823 49.8506C 33.5852 46.3472 35.0867 41.3921 35.0867 34.9856C 35.0867 28.8293 33.5325 23.9495 30.4243 20.3457C 27.3687 16.7419 23.3384 14.9402 18.3336 14.9402C 14.5404 14.9402 11.5112 16.1914 9.24582 18.6941L 9.24582 0L 0 3.979L 0 45.127ZM 23.5491 43.6194C 22.074 45.6714 19.9141 46.6975 17.0692 46.6975C 13.5395 46.6975 10.9317 45.4712 9.24582 43.0188L 9.24582 27.0276C 10.9843 24.5249 13.5921 23.2737 17.0692 23.2737C 19.8614 23.2737 22.0214 24.2747 23.5491 26.2766C 25.077 28.2788 25.8409 31.1816 25.8409 34.9856C 25.8409 38.6394 25.077 41.5173 23.5491 43.6194ZM 61.6653 51.127L 61.6653 54.2051L 70.674 54.2051L 70.674 29.5049C 70.674 26.4519 70.1999 23.8994 69.2516 21.8472C 68.3033 19.7952 66.9599 18.2937 65.2214 17.3425C 63.5355 16.3916 61.876 15.7661 60.2429 15.4658C 58.6624 15.1155 56.8185 14.9402 54.7112 14.9402C 48.5473 14.9402 43.2791 16.3416 38.9064 19.1445L 41.7512 26.2766C 45.3864 23.8743 49.3902 22.6731 53.7629 22.6731C 56.4497 22.6731 58.4253 23.2236 59.6897 24.3247C 61.0068 25.4258 61.6653 27.2026 61.6653 29.6553L 61.6653 31.6821C 59.1365 30.3308 55.9492 29.6553 52.1034 29.6553C 47.7307 29.6553 43.9902 30.7312 40.882 32.8835C 37.8264 35.0356 36.2986 38.1887 36.2986 42.343C 36.2986 46.3972 37.642 49.5503 40.3288 51.8027C 43.0683 54.0049 46.598 55.106 50.918 55.106C 55.3961 55.106 58.9785 53.7798 61.6653 51.127ZM 61.6653 43.6943C 59.1892 46.147 56.1863 47.373 52.6566 47.373C 50.2858 47.373 48.4683 46.9226 47.2039 46.0217C 45.9395 45.1208 45.3073 43.8945 45.3073 42.343C 45.3073 40.5913 46.0712 39.29 47.599 38.439C 49.1268 37.5881 51.1287 37.1628 53.6049 37.1628C 56.6604 37.1628 59.3472 37.6882 61.6653 38.7395L 61.6653 43.6943ZM 88.3692 55.106C 85.1029 55.106 82.021 54.5054 79.1234 53.3042C 76.2786 52.103 74.1186 50.5015 72.6434 48.4993L 78.9654 43.394C 81.8102 46.0969 84.9448 47.4482 88.3692 47.4482C 92.7419 47.4482 94.9282 46.197 94.9282 43.6943C 94.9282 42.8435 94.5331 42.0679 93.7429 41.3669C 93.0053 40.6663 92.1887 40.1409 91.2931 39.7905C 90.4502 39.3901 89.0541 38.8145 87.1049 38.0637C 82.4688 36.6123 79.0707 34.9604 76.9108 33.1086C 74.8035 31.2068 73.7498 28.7041 73.7498 25.6011C 73.7498 22.2476 75.0932 19.645 77.78 17.7932C 80.5195 15.8911 83.9702 14.9402 88.1321 14.9402C 94.2433 14.9402 99.0638 16.9172 102.594 20.8713L 96.1926 25.8262C 93.8219 23.6741 91.1351 22.5979 88.1321 22.5979C 84.4971 22.5979 82.6795 23.6489 82.6795 25.7512C 82.6795 26.8022 83.338 27.7031 84.6551 28.4539C 86.0248 29.2046 88.0004 29.9805 90.5819 30.7812C 94.9545 32.1826 98.2473 33.8345 100.46 35.7363C 102.725 37.6382 103.858 40.291 103.858 43.6943C 103.858 47.3481 102.462 50.176 99.6697 52.178C 96.8775 54.1301 93.1107 55.106 88.3692 55.106ZM 110.213 49.7756C 113.585 53.3291 118.142 55.106 123.884 55.106C 129.943 55.106 134.737 53.104 138.267 49.0999L 132.419 43.394C 130.312 46.0469 127.467 47.373 123.884 47.373C 121.356 47.373 119.169 46.5474 117.325 44.8958C 115.534 43.2439 114.56 41.0667 114.401 38.364L 141.191 38.364C 141.401 36.8125 141.507 35.0105 141.507 32.9585C 141.507 27.0525 139.847 22.573 136.528 19.5198C 133.262 16.4668 129.047 14.9402 123.884 14.9402C 118.195 14.9402 113.664 16.7419 110.292 20.3457C 106.921 23.8994 105.235 28.7793 105.235 34.9856C 105.235 41.2419 106.894 46.1719 110.213 49.7756ZM 132.34 31.0815L 114.48 31.0815C 114.691 28.2288 115.64 26.1265 117.325 24.7751C 119.064 23.3738 121.25 22.6731 123.884 22.6731C 126.15 22.6731 128.073 23.3987 129.653 24.8503C 131.234 26.2517 132.129 28.3289 132.34 31.0815Z"/>
</defs>
</svg>
